<?xml version="1.0" encoding="utf-8"?>
<!-- Generator: Adobe Illustrator 26.1.0, SVG Export Plug-In . SVG Version: 6.00 Build 0)  -->
<svg version="1.1" id="Слой_1" xmlns:xodm="http://www.corel.com/coreldraw/odm/2003"
	 xmlns="http://www.w3.org/2000/svg" xmlns:xlink="http://www.w3.org/1999/xlink" x="0px" y="0px" viewBox="0 0 68.8 19"
	 style="enable-background:new 0 0 68.8 19;" xml:space="preserve">
<style type="text/css">
	.st0{fill-rule:evenodd;clip-rule:evenodd;fill:url(#SVGID_1_);}
	.st1{fill-rule:evenodd;clip-rule:evenodd;fill:url(#SVGID_00000020387447494994122100000010172044168735287168_);}
	.st2{fill-rule:evenodd;clip-rule:evenodd;fill:url(#SVGID_00000120557380059537549950000008161881132419287484_);}
	.st3{fill-rule:evenodd;clip-rule:evenodd;fill:url(#SVGID_00000118380511797225643650000008726819425865028241_);}
	.st4{fill-rule:evenodd;clip-rule:evenodd;fill:url(#SVGID_00000109000698666634193140000000169124520171845779_);}
	.st5{fill-rule:evenodd;clip-rule:evenodd;fill:url(#SVGID_00000044152619442180760400000018397502292461000841_);}
	.st6{fill-rule:evenodd;clip-rule:evenodd;fill:url(#SVGID_00000114046859308416579940000013501221842228126083_);}
</style>
<g id="Слой_x0020_1">
	
		<linearGradient id="SVGID_1_" gradientUnits="userSpaceOnUse" x1="31099.4004" y1="-18498.3867" x2="34522.1992" y2="-18524.207" gradientTransform="matrix(2.834646e-02 0 0 -2.834646e-02 -886.9233 -514.4246)">
		<stop  offset="0" style="stop-color:#00C0FD"/>
		<stop  offset="1" style="stop-color:#E70FAA"/>
	</linearGradient>
	<path class="st0" d="M10.3,14.7h2.7V9.6c0-0.6,0.1-1.1,0.3-1.4c0.2-0.3,0.5-0.5,0.9-0.5c0.3,0,0.6,0.1,0.7,0.3
		c0.2,0.2,0.2,0.6,0.2,1.1v5.6h2.6V9.6c0-0.6,0.1-1.1,0.3-1.4c0.2-0.3,0.5-0.5,0.9-0.5c0.3,0,0.6,0.1,0.7,0.3
		c0.2,0.2,0.2,0.6,0.2,1.1v5.6h2.7V8.5c0-1-0.2-1.7-0.6-2.3c-0.4-0.5-1-0.8-1.8-0.8c-0.6,0-1.1,0.1-1.5,0.4c-0.4,0.3-0.8,0.6-1,1.1
		c-0.2-0.5-0.5-0.8-0.9-1.1c-0.4-0.3-0.9-0.4-1.5-0.4c-0.5,0-1,0.1-1.5,0.4c-0.4,0.3-0.8,0.7-1,1.1c0-0.2,0-0.4,0-0.6
		c0-0.2,0-0.5-0.1-0.7h-2.4c0,0.2,0,0.5,0.1,0.8c0,0.3,0,0.7,0,1.2C10.3,7.6,10.3,14.7,10.3,14.7z"/>
	
		<linearGradient id="SVGID_00000007424449271012333130000009639507158983690919_" gradientUnits="userSpaceOnUse" x1="31099.3906" y1="-18498.6211" x2="34522.1992" y2="-18524.4414" gradientTransform="matrix(2.834646e-02 0 0 -2.834646e-02 -886.9233 -514.4246)">
		<stop  offset="0" style="stop-color:#00C0FD"/>
		<stop  offset="1" style="stop-color:#E70FAA"/>
	</linearGradient>
	<path style="fill-rule:evenodd;clip-rule:evenodd;fill:url(#SVGID_00000007424449271012333130000009639507158983690919_);" d="
		M26.5,14.9L26.5,14.9c0.6,0,1-0.1,1.5-0.3c0.4-0.2,0.8-0.6,1.2-1l0.1,1.2h2.5c0-0.3-0.1-0.5-0.1-0.8c0-0.3,0-0.6,0-1V9.5
		c0-1.6-0.3-2.6-0.8-3.2c-0.5-0.6-1.5-0.9-2.9-0.9c-0.5,0-1,0.1-1.5,0.2c-0.5,0.1-1.1,0.3-1.6,0.5l0.1,2c0.3-0.3,0.7-0.5,1.1-0.6
		c0.4-0.1,0.8-0.2,1.2-0.2c0.6,0,1,0.1,1.3,0.4C28.9,7.9,29,8.3,29,8.7V9h-0.9c-1.4,0-2.4,0.3-3.2,0.8c-0.7,0.5-1.1,1.3-1.1,2.3
		c0,0.8,0.2,1.5,0.7,2C25.1,14.6,25.7,14.9,26.5,14.9z M26.7,12.7c-0.2-0.2-0.3-0.5-0.3-0.9c0-0.5,0.2-0.8,0.5-1.1
		c0.3-0.2,0.8-0.4,1.4-0.4c0.2,0,0.3,0,0.4,0c0.1,0,0.2,0,0.3,0V11c0,0.7-0.1,1.2-0.4,1.6c-0.2,0.3-0.6,0.5-1.1,0.5
		C27.2,13.1,26.9,13,26.7,12.7z"/>
	
		<linearGradient id="SVGID_00000121989430518535610800000007684220128481145739_" gradientUnits="userSpaceOnUse" x1="31099.4414" y1="-18492.8027" x2="34522.2422" y2="-18518.6133" gradientTransform="matrix(2.834646e-02 0 0 -2.834646e-02 -886.9233 -514.4246)">
		<stop  offset="0" style="stop-color:#00C0FD"/>
		<stop  offset="1" style="stop-color:#E70FAA"/>
	</linearGradient>
	<path style="fill-rule:evenodd;clip-rule:evenodd;fill:url(#SVGID_00000121989430518535610800000007684220128481145739_);" d="
		M33.7,14.7h2.6V9.6c0-0.6,0.1-1.1,0.3-1.4c0.2-0.3,0.5-0.5,0.9-0.5c0.3,0,0.6,0.1,0.8,0.3c0.2,0.2,0.2,0.6,0.2,1.1v5.6h2.7V8.5
		c0-1-0.2-1.8-0.7-2.3c-0.4-0.5-1.1-0.8-1.9-0.8c-0.6,0-1.1,0.1-1.5,0.4c-0.5,0.3-0.8,0.7-1,1.2c0-0.2,0-0.4,0-0.6
		c0-0.2,0-0.5-0.1-0.7h-2.4c0,0.2,0,0.5,0.1,0.8c0,0.3,0,0.7,0,1.2C33.7,7.6,33.7,14.7,33.7,14.7z"/>
	
		<linearGradient id="SVGID_00000160184181510190501440000018066364764303918518_" gradientUnits="userSpaceOnUse" x1="30288.502" y1="-18433.1016" x2="33711.3008" y2="-18458.9219" gradientTransform="matrix(2.834646e-02 0 0 -2.834646e-02 -886.9233 -514.4246)">
		<stop  offset="0" style="stop-color:#00C0FD"/>
		<stop  offset="1" style="stop-color:#E70FAA"/>
	</linearGradient>
	<path style="fill-rule:evenodd;clip-rule:evenodd;fill:url(#SVGID_00000160184181510190501440000018066364764303918518_);" d="
		M47.2,2.6L47.2,2.6L47.2,2.6L47.2,2.6L47.2,2.6L47.2,2.6L47.2,2.6L47.2,2.6l-0.2,0c-0.2,0-0.3,0-0.5,0h-2.9v12.1h2.7v-5h0.5
		c0.4,0,0.7,0.1,0.9,0.3c0.2,0.2,0.4,0.6,0.6,1.2l1,3.4h2.9l-1.3-4.1c-0.2-0.7-0.4-1.2-0.7-1.4c-0.2-0.3-0.5-0.4-0.9-0.5
		c0.7-0.2,1.3-0.5,1.7-1c0.4-0.5,0.6-1.1,0.6-1.8c0-1.1-0.4-2-1.1-2.5C49.9,2.8,48.8,2.6,47.2,2.6z M46.4,4.6H47
		c0.7,0,1.2,0.1,1.5,0.4c0.3,0.2,0.4,0.6,0.4,1.2c0,0.5-0.1,0.9-0.5,1.2c-0.3,0.2-0.8,0.4-1.5,0.4h-0.6C46.4,7.7,46.4,4.6,46.4,4.6z
		"/>
	
		<linearGradient id="SVGID_00000036215111894224705840000015968700470296082304_" gradientUnits="userSpaceOnUse" x1="30288.4434" y1="-18440.8301" x2="33711.2539" y2="-18466.6484" gradientTransform="matrix(2.834646e-02 0 0 -2.834646e-02 -886.9233 -514.4246)">
		<stop  offset="0" style="stop-color:#00C0FD"/>
		<stop  offset="1" style="stop-color:#E70FAA"/>
	</linearGradient>
	<path style="fill-rule:evenodd;clip-rule:evenodd;fill:url(#SVGID_00000036215111894224705840000015968700470296082304_);" d="
		M58.3,14.7v-1.9c-0.2,0-0.4,0.1-0.5,0.1c-0.1,0-0.3,0-0.4,0c-0.4,0-0.6-0.1-0.8-0.3c-0.1-0.2-0.2-0.6-0.2-1.3V7.5h1.7V5.7h-1.7V3
		l-2.6,0.8v1.8h-1.5v1.9h1.5v3.9c0,1.4,0.2,2.3,0.6,2.7c0.4,0.5,1.1,0.7,2.2,0.7c0.3,0,0.5,0,0.8,0C57.7,14.8,58,14.8,58.3,14.7z"/>
	
		<linearGradient id="SVGID_00000155121833803208913930000001452958763555617974_" gradientUnits="userSpaceOnUse" x1="30288.3125" y1="-18458.7734" x2="33711.1133" y2="-18484.5938" gradientTransform="matrix(2.834646e-02 0 0 -2.834646e-02 -886.9233 -514.4246)">
		<stop  offset="0" style="stop-color:#00C0FD"/>
		<stop  offset="1" style="stop-color:#E70FAA"/>
	</linearGradient>
	<path style="fill-rule:evenodd;clip-rule:evenodd;fill:url(#SVGID_00000155121833803208913930000001452958763555617974_);" d="
		M68.8,10.7V8.3c-0.5,0-1-0.1-1.5-0.2C67,8,66.7,7.8,66.4,7.5c-0.2-0.3-0.3-0.7-0.3-1.2l0.3-2.8c0.1-1.3-0.2-2.2-0.9-2.8
		c-0.7-0.5-2-0.8-3.7-0.8v2.1c0.6,0,1,0.1,1.4,0.3c0.3,0.2,0.5,0.5,0.4,1l-0.3,2.9c-0.1,0.7,0,1.3,0.2,1.8c0.2,0.4,0.6,0.8,1,1
		c0.5,0.2,1.1,0.4,1.8,0.5c-0.7,0.1-1.2,0.3-1.7,0.5c-0.5,0.2-0.8,0.6-1.1,1c-0.2,0.4-0.3,1-0.2,1.8l0.3,2.9c0.1,0.5-0.1,0.8-0.4,1
		c-0.3,0.2-0.8,0.3-1.4,0.3V19c1.8,0,3-0.3,3.8-0.8c0.7-0.5,1-1.5,0.9-2.8l-0.3-2.8c-0.1-0.5,0-0.9,0.3-1.2c0.2-0.3,0.5-0.5,1-0.6
		C67.8,10.8,68.3,10.7,68.8,10.7z"/>
	
		<linearGradient id="SVGID_00000105398396871949785270000000241393687489111730_" gradientUnits="userSpaceOnUse" x1="31099.541" y1="-18479.5137" x2="34522.3398" y2="-18505.3242" gradientTransform="matrix(2.834646e-02 0 0 -2.834646e-02 -886.9233 -514.4246)">
		<stop  offset="0" style="stop-color:#00C0FD"/>
		<stop  offset="1" style="stop-color:#E70FAA"/>
	</linearGradient>
	<path style="fill-rule:evenodd;clip-rule:evenodd;fill:url(#SVGID_00000105398396871949785270000000241393687489111730_);" d="
		M7,19v-2.1c-0.6,0-1-0.1-1.4-0.3c-0.3-0.2-0.5-0.5-0.4-1l0.3-2.9c0.1-0.7,0-1.3-0.2-1.8c-0.2-0.4-0.6-0.8-1-1
		C3.7,9.8,3.2,9.6,2.5,9.5C3.1,9.4,3.7,9.2,4.2,9C4.7,8.8,5,8.4,5.3,8c0.2-0.4,0.3-1,0.2-1.8L5.2,3.4c-0.1-0.5,0.1-0.8,0.4-1
		C5.9,2.2,6.4,2.1,7,2.1V0C5.2,0,4,0.3,3.2,0.8c-0.7,0.5-1,1.5-0.9,2.8l0.3,2.8c0.1,0.5,0,0.9-0.3,1.2C2.2,7.8,1.9,8,1.4,8.1
		C1,8.2,0.5,8.3,0,8.3v2.5c0.5,0,1,0.1,1.5,0.2c0.4,0.1,0.7,0.3,0.9,0.6c0.2,0.3,0.3,0.7,0.3,1.2l-0.3,2.8c-0.1,1.3,0.2,2.2,0.9,2.8
		C4,18.7,5.2,19,7,19z"/>
</g>
</svg>
